REM DIRINDEX 1\2,1\3,1\4,1\5
REM DIRNAME cjc044,folder01,folder02,folder03,folder04
TITLE ""
FILE "1800_140.mp3" MP3
  TRACK 01 AUDIO
    TITLE "2:cjc044_4237"
    INDEX 01 00:00:00
  TRACK 02 AUDIO
    TITLE "0:"
    INDEX 01 00:01:07
  TRACK 03 AUDIO
    TITLE "3:cjc044_4238"
    INDEX 01 00:01:68
  TRACK 04 AUDIO
    TITLE "0:"
    INDEX 01 00:03:06
  TRACK 05 AUDIO
    TITLE "4:cjc044_4239"
    INDEX 01 00:03:63
  TRACK 06 AUDIO
    TITLE "0:"
    INDEX 01 00:05:03
  TRACK 07 AUDIO
    TITLE "5:cjc044_4240"
    INDEX 01 00:05:65
  TRACK 08 AUDIO
    TITLE "0:"
    INDEX 01 00:09:40
  TRACK 09 AUDIO
    TITLE "2:cjc044_4241"
    INDEX 01 00:11:21
  TRACK 10 AUDIO
    TITLE "0:"
    INDEX 01 00:12:22
  TRACK 11 AUDIO
    TITLE "3:cjc044_4242"
    INDEX 01 00:13:04
  TRACK 12 AUDIO
    TITLE "0:"
    INDEX 01 00:14:07
  TRACK 13 AUDIO
    TITLE "4:cjc044_4243"
    INDEX 01 00:14:62
  TRACK 14 AUDIO
    TITLE "0:"
    INDEX 01 00:15:62
  TRACK 15 AUDIO
    TITLE "5:cjc044_4244"
    INDEX 01 00:16:48
  TRACK 16 AUDIO
    TITLE "0:"
    INDEX 01 00:18:70
  TRACK 17 AUDIO
    TITLE "2:cjc044_4245"
    INDEX 01 00:20:57
  TRACK 18 AUDIO
    TITLE "0:"
    INDEX 01 00:21:64
  TRACK 19 AUDIO
    TITLE "3:cjc044_4246"
    INDEX 01 00:22:52
  TRACK 20 AUDIO
    TITLE "0:"
    INDEX 01 00:23:55
  TRACK 21 AUDIO
    TITLE "4:cjc044_4247"
    INDEX 01 00:24:51
  TRACK 22 AUDIO
    TITLE "0:"
    INDEX 01 00:25:60
  TRACK 23 AUDIO
    TITLE "5:cjc044_4248"
    INDEX 01 00:26:48
  TRACK 24 AUDIO
    TITLE "0:"
    INDEX 01 00:29:21
  TRACK 25 AUDIO
    TITLE "2:cjc044_4249"
    INDEX 01 00:31:08
  TRACK 26 AUDIO
    TITLE "0:"
    INDEX 01 00:32:21
  TRACK 27 AUDIO
    TITLE "3:cjc044_4250"
    INDEX 01 00:33:09
  TRACK 28 AUDIO
    TITLE "0:"
    INDEX 01 00:34:24
  TRACK 29 AUDIO
    TITLE "4:cjc044_4251"
    INDEX 01 00:35:06
  TRACK 30 AUDIO
    TITLE "0:"
    INDEX 01 00:36:19
  TRACK 31 AUDIO
    TITLE "5:cjc044_4252"
    INDEX 01 00:37:08
  TRACK 32 AUDIO
    TITLE "0:"
    INDEX 01 00:40:38
  TRACK 33 AUDIO
    TITLE "2:cjc044_4253"
    INDEX 01 00:42:25
  TRACK 34 AUDIO
    TITLE "0:"
    INDEX 01 00:43:29
  TRACK 35 AUDIO
    TITLE "3:cjc044_4254"
    INDEX 01 00:44:16
  TRACK 36 AUDIO
    TITLE "0:"
    INDEX 01 00:45:28
  TRACK 37 AUDIO
    TITLE "4:cjc044_4255"
    INDEX 01 00:46:06
  TRACK 38 AUDIO
    TITLE "0:"
    INDEX 01 00:47:09
  TRACK 39 AUDIO
    TITLE "5:cjc044_4256"
    INDEX 01 00:47:64
  TRACK 40 AUDIO
    TITLE "0:"
    INDEX 01 00:50:46
  TRACK 41 AUDIO
    TITLE "2:cjc044_4257"
    INDEX 01 00:52:30
  TRACK 42 AUDIO
    TITLE "0:"
    INDEX 01 00:53:41
  TRACK 43 AUDIO
    TITLE "3:cjc044_4258"
    INDEX 01 00:54:25
  TRACK 44 AUDIO
    TITLE "0:"
    INDEX 01 00:56:25
  TRACK 45 AUDIO
    TITLE "4:cjc044_4259"
    INDEX 01 00:57:11
  TRACK 46 AUDIO
    TITLE "0:"
    INDEX 01 00:58:18
  TRACK 47 AUDIO
    TITLE "5:cjc044_4260"
    INDEX 01 00:58:69
  TRACK 48 AUDIO
    TITLE "0:"
    INDEX 01 01:01:46
  TRACK 49 AUDIO
    TITLE "2:cjc044_4261"
    INDEX 01 01:03:35
  TRACK 50 AUDIO
    TITLE "0:"
    INDEX 01 01:04:41
  TRACK 51 AUDIO
    TITLE "3:cjc044_4262"
    INDEX 01 01:05:24
  TRACK 52 AUDIO
    TITLE "0:"
    INDEX 01 01:06:47
  TRACK 53 AUDIO
    TITLE "4:cjc044_4263"
    INDEX 01 01:07:33
  TRACK 54 AUDIO
    TITLE "0:"
    INDEX 01 01:08:38
  TRACK 55 AUDIO
    TITLE "5:cjc044_4264"
    INDEX 01 01:09:20
  TRACK 56 AUDIO
    TITLE "0:"
    INDEX 01 01:12:44
  TRACK 57 AUDIO
    TITLE "2:cjc044_4265"
    INDEX 01 01:14:35
  TRACK 58 AUDIO
    TITLE "0:"
    INDEX 01 01:15:46
  TRACK 59 AUDIO
    TITLE "3:cjc044_4266"
    INDEX 01 01:16:30
  TRACK 60 AUDIO
    TITLE "0:"
    INDEX 01 01:17:37
  TRACK 61 AUDIO
    TITLE "4:cjc044_4267"
    INDEX 01 01:18:23
  TRACK 62 AUDIO
    TITLE "0:"
    INDEX 01 01:19:34
  TRACK 63 AUDIO
    TITLE "5:cjc044_4268"
    INDEX 01 01:20:20
  TRACK 64 AUDIO
    TITLE "0:"
    INDEX 01 01:23:56
  TRACK 65 AUDIO
    TITLE "2:cjc044_4269"
    INDEX 01 01:25:37
  TRACK 66 AUDIO
    TITLE "0:"
    INDEX 01 01:26:36
  TRACK 67 AUDIO
    TITLE "3:cjc044_4270"
    INDEX 01 01:27:14
  TRACK 68 AUDIO
    TITLE "0:"
    INDEX 01 01:28:71
  TRACK 69 AUDIO
    TITLE "4:cjc044_4271"
    INDEX 01 01:29:56
  TRACK 70 AUDIO
    TITLE "0:"
    INDEX 01 01:30:52
  TRACK 71 AUDIO
    TITLE "5:cjc044_4272"
    INDEX 01 01:31:34
  TRACK 72 AUDIO
    TITLE "0:"
    INDEX 01 01:33:68
  TRACK 73 AUDIO
    TITLE "2:cjc044_4273"
    INDEX 01 01:35:59
  TRACK 74 AUDIO
    TITLE "0:"
    INDEX 01 01:36:54
  TRACK 75 AUDIO
    TITLE "3:cjc044_4274"
    INDEX 01 01:37:42
  TRACK 76 AUDIO
    TITLE "0:"
    INDEX 01 01:38:51
  TRACK 77 AUDIO
    TITLE "4:cjc044_4275"
    INDEX 01 01:39:33
  TRACK 78 AUDIO
    TITLE "0:"
    INDEX 01 01:40:29
  TRACK 79 AUDIO
    TITLE "5:cjc044_4276"
    INDEX 01 01:41:18
  TRACK 80 AUDIO
    TITLE "0:"
    INDEX 01 01:44:44
